<svg viewBox="1 1 511.99998 511.99998" xmlns="http://www.w3.org/2000/svg"><path d="m512 256c0 141.386719-114.613281 256-256 256s-256-114.613281-256-256 114.613281-256 256-256 256 114.613281 256 256zm0 0" fill="#fcda42"/><path d="m347.09375 495.324219c-28.304688 10.773437-59.003906 16.675781-91.09375 16.675781s-62.789062-5.902344-91.09375-16.675781l20.9375-60.648438 16.867188-48.828125h106.578124l16.867188 48.828125zm0 0" fill="#ededed"/><path d="m326.15625 434.675781-154.949219 42.386719 31.503907-91.214844h106.578124zm0 0" fill="#d6d6d6"/><path d="m502.074219 80.121094v246.722656c-8.359375 29.089844-21.746094 56.058594-39.144531 79.902344h-413.859376c-17.398437-23.84375-30.785156-50.8125-39.144531-79.902344v-246.722656c0-16.96875 13.75-30.730469 30.722657-30.730469h430.695312c16.96875 0 30.730469 13.761719 30.730469 30.730469zm0 0" fill="#ededed"/><path d="m40.648438 343.433594c-5.417969 0-9.828126-4.410156-9.828126-9.828125v-253.488281c0-5.417969 4.410157-9.828126 9.828126-9.828126h430.695312c5.421875 0 9.828125 4.410157 9.828125 9.828126v253.488281c0 5.417969-4.410156 9.828125-9.828125 9.828125zm0 0" fill="#fff"/><path d="m172.410156 317.929688h293.617188v-293.617188zm241.371094-52.246094h-115.242188l115.242188-115.238282zm0 0" fill="#5a9ed1"/><path d="m93.59375.03125 150.445312 150.445312 7.023438 32.636719 7.414062 34.457031-34.457031-7.414062-32.636719-7.027344-150.4375-150.441406zm0 0" fill="#fcda42"/><path d="m40.941406 52.6875 52.652344-52.6523438 150.441406 150.4374998-52.65625 52.65625zm0 0" fill="#ff4f9b"/><path d="m258.476562 217.570312-51.023437-30.511718-16.070313 16.070312zm0 0" fill="#f4a441"/><path d="m40.941406 52.691406 16.070313-16.070312 150.4375 150.4375-16.070313 16.070312zm0 0" fill="#e8388c"/><path d="m124.40625 62.984375 103.558594 103.5625-20.511719 20.511719-150.441406-150.441406 20.515625-20.511719 34.304687 34.308593" fill="#ff8ac1"/><path d="m251.058594 183.113281 7.414062 34.453125-34.453125-7.414062zm0 0" fill="#475866"/><path d="m232.273438 201.902344 26.199218 15.664062-34.453125-7.414062zm0 0" fill="#384361"/><g fill="#583377"><path d="m432.941406 293.203125h16.019532v24.726563h-16.019532zm0 0"/><path d="m217.34375 293.203125h16.019531v24.726563h-16.019531zm0 0"/><path d="m260.460938 293.203125h16.023437v24.726563h-16.023437zm0 0"/><path d="m303.582031 293.203125h16.019531v24.726563h-16.019531zm0 0"/><path d="m346.699219 293.203125h16.023437v24.726563h-16.023437zm0 0"/><path d="m389.820312 293.203125h16.019532v24.726563h-16.019532zm0 0"/></g></svg>