<?xml version="1.0" encoding="iso-8859-1"?>
<!-- Generator: Adobe Illustrator 19.0.0, SVG Export Plug-In . SVG Version: 6.00 Build 0)  -->
<svg version="1.1" id="Capa_1" xmlns="http://www.w3.org/2000/svg" xmlns:xlink="http://www.w3.org/1999/xlink" x="0px" y="0px"
	 viewBox="0 0 512 512" style="enable-background:new 0 0 512 512;" xml:space="preserve">
<g>
	<g>
		<path d="M411.414,9.444H246.803C246.606,4.196,242.301,0,237.006,0h-56.227c-5.295,0-9.6,4.196-9.796,9.444H65.823
			c-5.42,0-9.816,4.394-9.816,9.816v482.925c0,5.42,4.395,9.816,9.816,9.816h345.591c24.581,0,44.578-19.998,44.578-44.579v-413.4
			C455.993,29.441,435.995,9.444,411.414,9.444z M190.593,19.631L190.593,19.631h36.597v126.32l-12.526-9.11
			c-1.721-1.251-3.747-1.878-5.773-1.878c-2.026,0-4.053,0.626-5.773,1.878l-12.525,9.11V19.631z M135.759,492.369h-21.266V440.59
			c0-5.421-4.395-9.815-9.816-9.815c-5.42,0-9.816,4.394-9.816,9.815v51.779H75.639V29.075h60.12V492.369z M436.361,56.756h-51.779
			c-5.421,0-9.815,4.394-9.815,9.815c0,5.421,4.394,9.816,9.815,9.816h51.779v391.033c0,13.756-11.192,24.948-24.947,24.948H155.39
			V29.075h15.573v136.153c0,3.692,2.071,7.072,5.362,8.747c3.288,1.675,7.242,1.362,10.227-0.809l22.34-16.25l22.341,16.25
			c1.71,1.244,3.737,1.878,5.774,1.878c1.52,0,3.048-0.352,4.452-1.069c3.29-1.676,5.362-5.055,5.362-8.747V29.075h164.592
			c13.756,0,24.947,11.191,24.947,24.946V56.756z"/>
	</g>
</g>
<g>
	<g>
		<path d="M104.677,403.202c-5.42,0-9.816,4.394-9.816,9.816v0.863c0,5.421,4.394,9.816,9.816,9.816c5.42,0,9.816-4.394,9.816-9.816
			v-0.863C114.492,407.596,110.097,403.202,104.677,403.202z"/>
	</g>
</g>
<g>
	<g>
		<path d="M357.871,56.756h-0.858c-5.42,0-9.816,4.394-9.816,9.815c0,5.421,4.395,9.816,9.816,9.816h0.858
			c5.421,0,9.816-4.394,9.816-9.816C367.686,61.151,363.291,56.756,357.871,56.756z"/>
	</g>
</g>
<g>
	<g>
		<path d="M350.489,209.099H227.795c-5.421,0-9.816,4.394-9.816,9.815c0,5.421,4.394,9.816,9.816,9.816h122.694
			c5.421,0,9.816-4.394,9.816-9.816C360.305,213.494,355.91,209.099,350.489,209.099z"/>
	</g>
</g>
<g>
	<g>
		<path d="M350.489,278.626H227.795c-5.421,0-9.816,4.394-9.816,9.816c0,5.421,4.394,9.815,9.816,9.815h122.694
			c5.421,0,9.816-4.394,9.816-9.815C360.305,283.02,355.91,278.626,350.489,278.626z"/>
	</g>
</g>
<g>
	<g>
		<path d="M272.527,243.863h-44.732c-5.421,0-9.815,4.394-9.815,9.816c0,5.421,4.395,9.816,9.815,9.816h44.732
			c5.42,0,9.816-4.394,9.816-9.816S277.948,243.863,272.527,243.863z"/>
	</g>
</g>
<g>
	<g>
		<path d="M350.489,243.863h-44.731c-5.42,0-9.815,4.394-9.815,9.815c0,5.421,4.395,9.816,9.815,9.816h44.731
			c5.421,0,9.816-4.394,9.816-9.816C360.305,248.258,355.91,243.863,350.489,243.863z"/>
	</g>
</g>
<g>
</g>
<g>
</g>
<g>
</g>
<g>
</g>
<g>
</g>
<g>
</g>
<g>
</g>
<g>
</g>
<g>
</g>
<g>
</g>
<g>
</g>
<g>
</g>
<g>
</g>
<g>
</g>
<g>
</g>
</svg>
